<svg width="172" height="184" viewBox="0 0 172 184" fill="none" xmlns="http://www.w3.org/2000/svg">
<g id="Group 1000004148">
<circle id="Ellipse 2738" cx="86" cy="98" r="86" fill="url(#paint0_linear_41_1540)"/>
<g id="Dotted Shape">
<circle id="Ellipse 11" cx="59.9138" cy="87.4851" r="1.42021" transform="rotate(180 59.9138 87.4851)" fill="#3758F9"/>
<circle id="Ellipse 16" cx="59.9138" cy="74.9873" r="1.42021" transform="rotate(180 59.9138 74.9873)" fill="#3758F9"/>
<circle id="Ellipse 21" cx="59.9138" cy="62.489" r="1.42021" transform="rotate(180 59.9138 62.489)" fill="#3758F9"/>
<circle id="Ellipse 31" cx="59.9138" cy="38.3454" r="1.42021" transform="rotate(180 59.9138 38.3454)" fill="#3758F9"/>
<circle id="Ellipse 41" cx="59.9138" cy="13.6345" r="1.42021" transform="rotate(180 59.9138 13.6345)" fill="#3758F9"/>
<circle id="Ellipse 26" cx="59.9138" cy="50.2751" r="1.42021" transform="rotate(180 59.9138 50.2751)" fill="#3758F9"/>
<circle id="Ellipse 32" cx="59.9138" cy="26.1315" r="1.42021" transform="rotate(180 59.9138 26.1315)" fill="#3758F9"/>
<circle id="Ellipse 42" cx="59.9138" cy="1.42061" r="1.42021" transform="rotate(180 59.9138 1.42061)" fill="#3758F9"/>
<circle id="Ellipse 12" cx="47.4166" cy="87.4851" r="1.42021" transform="rotate(180 47.4166 87.4851)" fill="#3758F9"/>
<circle id="Ellipse 17" cx="47.4166" cy="74.9873" r="1.42021" transform="rotate(180 47.4166 74.9873)" fill="#3758F9"/>
<circle id="Ellipse 22" cx="47.4166" cy="62.489" r="1.42021" transform="rotate(180 47.4166 62.489)" fill="#3758F9"/>
<circle id="Ellipse 33" cx="47.4166" cy="38.3454" r="1.42021" transform="rotate(180 47.4166 38.3454)" fill="#3758F9"/>
<circle id="Ellipse 43" cx="47.4166" cy="13.6345" r="1.42021" transform="rotate(180 47.4166 13.6345)" fill="#3758F9"/>
<circle id="Ellipse 27" cx="47.4166" cy="50.2751" r="1.42021" transform="rotate(180 47.4166 50.2751)" fill="#3758F9"/>
<circle id="Ellipse 34" cx="47.4166" cy="26.1315" r="1.42021" transform="rotate(180 47.4166 26.1315)" fill="#3758F9"/>
<circle id="Ellipse 44" cx="47.4166" cy="1.42061" r="1.42021" transform="rotate(180 47.4166 1.42061)" fill="#3758F9"/>
<circle id="Ellipse 13" cx="34.9177" cy="87.4851" r="1.42021" transform="rotate(180 34.9177 87.4851)" fill="#3758F9"/>
<circle id="Ellipse 18" cx="34.9177" cy="74.9873" r="1.42021" transform="rotate(180 34.9177 74.9873)" fill="#3758F9"/>
<circle id="Ellipse 23" cx="34.9177" cy="62.489" r="1.42021" transform="rotate(180 34.9177 62.489)" fill="#3758F9"/>
<circle id="Ellipse 35" cx="34.9177" cy="38.3454" r="1.42021" transform="rotate(180 34.9177 38.3454)" fill="#3758F9"/>
<circle id="Ellipse 45" cx="34.9177" cy="13.6345" r="1.42021" transform="rotate(180 34.9177 13.6345)" fill="#3758F9"/>
<circle id="Ellipse 28" cx="34.9177" cy="50.2751" r="1.42021" transform="rotate(180 34.9177 50.2751)" fill="#3758F9"/>
<circle id="Ellipse 36" cx="34.9177" cy="26.1315" r="1.42021" transform="rotate(180 34.9177 26.1315)" fill="#3758F9"/>
<circle id="Ellipse 46" cx="34.9177" cy="1.42061" r="1.42021" transform="rotate(180 34.9177 1.42061)" fill="#3758F9"/>
<circle id="Ellipse 14" cx="22.4196" cy="87.4851" r="1.42021" transform="rotate(180 22.4196 87.4851)" fill="#3758F9"/>
<circle id="Ellipse 19" cx="22.4196" cy="74.9873" r="1.42021" transform="rotate(180 22.4196 74.9873)" fill="#3758F9"/>
<circle id="Ellipse 24" cx="22.4206" cy="62.489" r="1.42021" transform="rotate(180 22.4206 62.489)" fill="#3758F9"/>
<circle id="Ellipse 37" cx="22.4196" cy="38.3454" r="1.42021" transform="rotate(180 22.4196 38.3454)" fill="#3758F9"/>
<circle id="Ellipse 47" cx="22.4206" cy="13.6345" r="1.42021" transform="rotate(180 22.4206 13.6345)" fill="#3758F9"/>
<circle id="Ellipse 29" cx="22.4206" cy="50.2751" r="1.42021" transform="rotate(180 22.4206 50.2751)" fill="#3758F9"/>
<circle id="Ellipse 38" cx="22.4196" cy="26.1315" r="1.42021" transform="rotate(180 22.4196 26.1315)" fill="#3758F9"/>
<circle id="Ellipse 48" cx="22.4206" cy="1.42061" r="1.42021" transform="rotate(180 22.4206 1.42061)" fill="#3758F9"/>
</g>
</g>
<defs>
<linearGradient id="paint0_linear_41_1540" x1="86" y1="12" x2="86" y2="184" gradientUnits="userSpaceOnUse">
<stop stop-color="#3056D3" stop-opacity="0.09"/>
<stop offset="1" stop-color="#C4C4C4" stop-opacity="0"/>
</linearGradient>
</defs>
</svg>
